# xmcd
#
# Track frame offsets:
#	150
#	18064
#	30477
#	52292
#	67789
#	83750
#	100070
#	120092
#	133166
#	150415
#	165008
#
# Disc length: 2451 seconds
#
# Revision: 0
# Processed by: cddbd v1.5.1PL0 Copyright (c) Steve Scherf et al.
# Submitted via: dBpowerAMP V4.0
#
DISCID=6f09910b
DTITLE=PIRARUBLUE - PIRARUBLUE
DYEAR=2005
DGENRE=BLUES
TTITLE0=DE MANHÃ
TTITLE1=ELOS
TTITLE2=INVERNO
TTITLE3=PIRARUBLUE
TTITLE4=DA JANELA
TTITLE5=IDENTIFICADO
TTITLE6=BOLA DE GUDE
TTITLE7=ALDEIA DA CANÇÃO
TTITLE8=REGUE A TEIA
TTITLE9=NA MOLEIRA
TTITLE10=UNTOQUEPORNADA
EXTD=
EXTT0=
EXTT1=
EXTT2=
EXTT3=
EXTT4=
EXTT5=
EXTT6=
EXTT7=
EXTT8=
EXTT9=
EXTT10=
PLAYORDER=
